# xmcd
#
# Track frame offsets:
#	150
#	16785
#	32130
#	44689
#
# Disc length: 837 seconds
#
# Revision: 0
# Processed by: cddbd v1.5.1PL2 Copyright (c) Steve Scherf et al.
# Submitted via: dBpowerAMP V4.0
#
DISCID=2a034304
DTITLE=Stephanie Beck - Elvis Movie
DYEAR=1900
DGENRE=Country
TTITLE0=Elvis Movie
TTITLE1=I Did I Do I Will
TTITLE2=Here I Am Baby
TTITLE3=Your Name
EXTD=
EXTT0=
EXTT1=
EXTT2=
EXTT3=
PLAYORDER=
